<?xml version="1.0" standalone="no"?>
<!DOCTYPE svg PUBLIC "-//W3C//DTD SVG 20010904//EN"
 "http://www.w3.org/TR/2001/REC-SVG-20010904/DTD/svg10.dtd">
<svg version="1.0" xmlns="http://www.w3.org/2000/svg"
 width="640.000000pt" height="640.000000pt" viewBox="0 0 640.000000 640.000000"
 preserveAspectRatio="xMidYMid meet">
<metadata>
Created by potrace 1.14, written by Peter Selinger 2001-2017
</metadata>
<g transform="translate(0.000000,640.000000) scale(0.100000,-0.100000)"
fill="#000000" stroke="none">
<path d="M0 6336 c0 -63 1 -65 29 -71 66 -14 131 36 131 101 l0 34 -80 0 -80
0 0 -64z"/>
<path d="M1150 6361 c0 -108 154 -136 196 -35 27 66 16 74 -97 74 l-99 0 0
-39z"/>
<path d="M2280 6364 c0 -46 14 -70 52 -90 67 -35 148 12 148 86 l0 40 -100 0
-100 0 0 -36z"/>
<path d="M3470 6365 c0 -24 9 -45 29 -67 25 -28 36 -33 76 -33 40 0 51 5 76
33 20 22 29 43 29 67 l0 35 -105 0 -105 0 0 -35z"/>
<path d="M4500 6369 c0 -78 76 -129 145 -96 38 18 68 66 63 100 -3 21 -9 22
-105 25 l-103 3 0 -32z"/>
<path d="M5700 6362 c0 -48 21 -77 65 -92 71 -24 135 23 135 100 l0 30 -100 0
-100 0 0 -38z"/>
<path d="M4130 5890 c-86 -18 -113 -107 -52 -172 21 -23 34 -28 73 -28 63 0
99 39 99 106 0 68 -52 109 -120 94z"/>
<path d="M556 5861 c-63 -66 -17 -171 75 -171 53 0 87 24 99 70 20 73 -24 130
-100 130 -38 0 -51 -5 -74 -29z"/>
<path d="M1755 5866 c-69 -69 -27 -176 69 -176 63 0 96 30 103 92 5 42 3 50
-25 78 -40 40 -110 43 -147 6z"/>
<path d="M2878 5859 c-28 -28 -30 -34 -25 -78 l6 -49 -57 -6 c-261 -31 -550
-120 -812 -251 -257 -128 -452 -268 -655 -470 -379 -376 -603 -798 -716 -1343
-17 -87 -23 -99 -54 -125 -31 -25 -35 -34 -35 -77 0 -38 5 -53 25 -71 24 -24
25 -26 25 -194 0 -269 35 -504 111 -749 17 -54 28 -100 26 -102 -2 -2 -12 5
-22 16 -21 23 -79 27 -119 9 -28 -13 -59 -79 -50 -106 14 -44 29 -63 60 -78
64 -30 144 14 148 81 0 13 3 24 6 24 3 0 22 -42 43 -94 89 -218 252 -478 420
-668 146 -165 238 -250 408 -379 64 -48 119 -96 121 -107 8 -28 50 -53 99 -59
24 -4 69 -21 102 -40 32 -18 60 -33 62 -33 2 0 38 -16 81 -36 147 -68 267
-110 439 -153 233 -59 305 -66 690 -66 387 0 432 5 699 71 901 225 1637 971
1848 1875 22 97 37 143 48 146 53 17 73 29 85 54 32 60 7 139 -47 152 l-23 6
3 188 c2 103 -1 242 -8 308 -16 166 -68 417 -106 510 -7 17 -3 16 25 -7 45
-39 98 -38 140 1 59 56 34 157 -44 177 -66 16 -130 -35 -128 -104 0 -28 -1
-32 -7 -17 -5 11 -25 63 -45 115 -188 486 -548 923 -1000 1215 -182 118 -445
237 -660 299 -244 70 -406 93 -716 102 l-215 7 4 27 c5 32 -20 85 -47 100 -11
5 -38 10 -61 10 -33 0 -48 -6 -72 -31z m610 -610 c372 -40 755 -198 1055 -436
91 -72 244 -225 324 -324 204 -251 347 -557 419 -892 35 -163 45 -511 20 -683
-136 -922 -842 -1626 -1771 -1765 -57 -9 -180 -14 -335 -14 -251 0 -343 8
-510 46 -515 118 -970 431 -1267 874 -168 250 -280 542 -329 859 -25 169 -15
517 20 683 105 495 371 923 766 1234 67 53 235 160 315 201 209 108 459 185
685 213 131 16 478 19 608 4z"/>
<path d="M3799 4483 c-30 -28 -58 -72 -105 -169 -56 -116 -65 -141 -69 -204
-7 -102 -22 -153 -43 -145 -9 3 -51 9 -93 12 -72 5 -78 4 -88 -16 -15 -27 -6
-58 20 -66 40 -13 17 -25 -48 -25 -182 0 -194 -59 -23 -113 39 -12 70 -24 70
-27 0 -3 -27 -11 -61 -17 -66 -13 -89 -26 -89 -53 0 -26 19 -38 91 -56 46 -12
85 -15 137 -10 l72 6 1 -28 c4 -132 45 -230 125 -301 l46 -41 -17 -26 c-9 -15
-35 -33 -56 -42 -21 -8 -39 -19 -39 -23 0 -8 11 -11 74 -24 10 -2 32 -1 48 2
24 5 28 10 24 27 -3 12 -3 31 0 43 6 20 6 20 85 -6 43 -14 79 -30 79 -35 0 -5
-12 -25 -26 -44 -24 -31 -25 -34 -6 -28 16 5 21 2 24 -16 2 -13 10 -23 18 -24
8 0 28 -5 43 -12 16 -7 33 -12 38 -12 16 0 10 28 -16 67 -40 57 -32 74 45 93
36 8 88 28 116 43 49 27 194 160 194 178 0 16 26 10 44 -10 31 -35 151 -82
198 -79 39 3 43 6 46 32 3 23 -6 37 -48 77 -29 27 -51 49 -49 49 2 0 29 -7 59
-15 73 -20 160 -20 160 -1 0 31 -15 48 -82 93 l-69 47 33 10 c27 9 33 16 33
40 0 34 -28 58 -100 84 -59 22 -59 25 -9 127 31 63 35 78 33 145 -1 41 4 125
11 187 12 101 12 114 -4 137 -25 38 -69 34 -186 -19 -136 -61 -182 -71 -229
-48 -29 14 -36 24 -38 48 -1 20 0 23 4 7 6 -31 57 -56 83 -42 24 13 26 56 4
88 -32 46 -104 15 -104 -45 0 -40 -27 -25 -97 54 -127 143 -150 163 -188 163
-26 0 -45 -9 -76 -37z m461 -144 c17 -31 9 -63 -18 -67 -29 -4 -48 11 -57 45
-11 43 54 63 75 22z m-289 -23 c102 -43 156 -173 113 -274 -73 -176 -325 -176
-398 0 -42 100 11 230 112 274 38 17 133 17 173 0z m528 -149 c63 -42 94 -97
99 -173 4 -54 1 -70 -21 -106 -48 -82 -109 -118 -199 -118 -109 0 -201 86
-215 198 -10 87 50 185 137 221 14 6 55 10 91 8 53 -2 75 -8 108 -30z m-396
-326 c16 -6 15 -11 -13 -49 -36 -50 -65 -55 -75 -13 -3 16 -3 40 1 55 6 24 10
26 38 20 17 -4 39 -10 49 -13z m-166 -257 c16 -22 27 -26 64 -26 61 2 76 -9
63 -45 -12 -35 -36 -40 -62 -13 -14 15 -37 23 -76 27 -59 6 -64 12 -46 57 12
33 33 33 57 0z"/>
<path d="M4195 4329 c-4 -6 -1 -10 6 -8 26 3 39 -1 39 -12 0 -5 -4 -7 -10 -4
-5 3 -10 1 -10 -4 0 -6 7 -11 15 -11 20 0 19 36 -1 44 -22 9 -32 7 -39 -5z"/>
<path d="M3797 4150 c-55 -43 -39 -128 30 -156 96 -41 177 73 104 147 -36 36
-95 40 -134 9z"/>
<path d="M4289 4001 c-38 -39 -39 -80 0 -123 24 -27 36 -33 71 -33 35 0 47 6
71 33 16 18 29 41 29 52 0 87 -109 132 -171 71z"/>
<path d="M2308 4445 c-18 -11 -46 -53 -92 -144 -45 -87 -81 -144 -113 -177
l-48 -49 -3 28 c-5 43 3 56 53 77 25 11 45 23 45 27 0 4 -12 21 -26 37 -29 33
-54 28 -65 -15 -5 -20 -7 -18 -13 18 -9 50 -48 93 -85 93 -71 -1 -109 -101
-56 -150 25 -23 26 -23 61 -7 23 12 39 28 47 50 11 32 11 32 17 7 9 -35 -4
-57 -39 -65 -45 -10 -57 -29 -37 -60 20 -31 50 -32 71 -2 16 22 16 22 9 -8 -4
-16 -11 -34 -16 -40 -13 -14 -119 -9 -206 9 -87 19 -132 20 -167 4 -43 -19
-37 -57 44 -278 11 -30 20 -65 21 -77 0 -12 9 -45 20 -72 15 -39 17 -57 10
-77 -12 -32 -13 -44 -1 -44 5 0 14 15 20 33 9 24 14 29 20 18 6 -9 5 -21 -2
-32 -6 -10 -8 -22 -3 -26 5 -4 13 0 19 9 10 15 13 14 34 -10 13 -15 23 -30 23
-35 0 -4 -24 -22 -53 -41 -68 -44 -79 -58 -75 -98 3 -30 7 -33 40 -38 l37 -5
-30 -35 c-97 -113 -111 -150 -58 -150 33 0 118 33 161 62 38 26 42 22 15 -14
-67 -90 -72 -148 -14 -148 42 0 107 41 176 112 l54 56 45 -35 c108 -82 250
-130 353 -118 52 6 58 5 64 -14 3 -12 -1 -44 -10 -71 -9 -27 -14 -54 -10 -60
7 -12 65 15 65 30 0 6 7 10 15 10 10 0 15 10 15 26 0 21 4 25 20 21 31 -8 24
8 -15 34 -38 26 -44 45 -17 53 9 3 41 22 71 41 29 19 57 33 62 29 5 -3 12 -23
15 -45 5 -28 10 -37 18 -30 6 6 18 6 25 2 8 -5 33 1 63 16 41 20 48 26 38 38
-7 8 -27 15 -44 15 -36 0 -76 24 -76 45 0 8 13 33 29 57 52 79 64 127 58 231
-3 50 -7 101 -9 112 -3 16 5 20 52 27 60 9 133 37 192 74 80 51 29 103 -87 89
-30 -4 -55 -5 -55 -2 0 2 31 23 69 46 69 41 111 81 111 107 0 24 -43 26 -138
7 -51 -11 -92 -17 -92 -15 0 2 9 15 20 29 24 31 25 46 4 67 -18 19 -42 15
-137 -21 -66 -26 -68 -26 -82 -7 -24 33 -28 65 -8 80 17 13 17 13 -4 14 -12 0
-24 4 -27 8 -3 5 8 7 23 4 16 -2 32 1 35 7 7 11 1 15 -46 25 -19 4 -32 17 -42
40 -7 18 -29 48 -48 67 -18 19 -54 61 -80 95 -51 66 -99 107 -153 130 -42 17
-43 17 -77 -1z m-310 -137 c17 -17 15 -33 -2 -18 -22 17 -70 -8 -74 -39 -5
-34 16 -51 33 -27 8 10 11 24 8 29 -5 8 -8 7 -11 -1 -2 -7 -8 -12 -14 -12 -6
0 -3 9 7 20 32 35 62 21 51 -24 -4 -18 -41 -46 -61 -46 -13 0 -35 36 -35 58 0
58 62 96 98 60z m650 -180 c14 -14 16 -28 2 -28 -5 0 -14 9 -20 20 -12 22 -1
27 18 8z m21 -65 c2 -2 1 -6 -2 -10 -8 -8 -67 46 -67 61 0 5 15 -3 32 -20 18
-16 35 -30 37 -31z m-68 11 c7 -8 26 -22 41 -30 26 -13 29 -19 22 -47 -16 -75
-72 -146 -144 -183 -57 -29 -153 -25 -218 11 -46 25 -102 80 -91 89 2 1 35 13
72 25 l69 23 27 -26 c37 -35 98 -36 139 -1 34 28 44 64 31 108 -12 44 24 65
52 31z m-411 -297 c0 -36 -7 -73 -17 -95 -28 -58 -92 -116 -146 -131 -49 -14
-161 -11 -176 5 -5 5 -11 35 -14 66 -5 54 -4 57 20 65 21 7 31 4 54 -19 38
-38 102 -39 141 -3 35 32 43 65 28 107 -11 32 -10 34 37 76 l48 43 12 -28 c7
-15 12 -54 13 -86z m179 -76 c13 -47 6 -71 -22 -71 -22 0 -87 45 -87 60 0 10
67 49 86 50 6 0 16 -18 23 -39z m-544 -88 c4 -19 3 -33 -3 -33 -11 0 -33 76
-24 85 8 8 18 -13 27 -52z m-35 -1 c0 -12 -3 -12 -15 -2 -8 7 -15 22 -15 34 1
21 1 21 15 2 8 -11 15 -26 15 -34z"/>
<path d="M3311 2981 c-16 -16 -20 -41 -26 -159 l-7 -140 -32 9 c-115 33 -218
-25 -262 -148 -17 -49 -17 -127 1 -177 16 -46 13 -56 -20 -56 -48 0 -60 67
-44 237 14 144 10 153 -63 153 -49 0 -54 -12 -61 -135 -7 -146 -46 -245 -96
-245 -10 0 -24 11 -31 24 -11 21 -10 50 3 173 16 145 16 148 -3 164 -26 22
-89 34 -104 19 -19 -19 -29 -272 -14 -354 4 -28 -57 -51 -95 -37 l-27 11 25
40 c49 77 52 186 8 262 -23 40 -86 78 -131 78 -65 0 -96 -30 -141 -140 -7 -19
-10 0 -10 83 1 116 -7 137 -47 137 -23 0 -53 -23 -56 -43 -1 -7 -2 -97 -2
-200 l-1 -188 -32 -30 c-24 -21 -33 -37 -33 -60 0 -31 1 -31 35 -26 l35 6 0
-119 c0 -112 1 -120 21 -131 17 -8 31 -8 60 0 l39 12 -7 122 -6 123 70 -4 c42
-2 79 1 92 7 16 9 31 8 66 -4 59 -19 109 -19 140 1 23 15 28 15 59 0 80 -38
149 -6 190 88 l23 51 6 -51 c9 -67 39 -95 106 -102 31 -3 60 1 78 10 23 11 32
12 53 1 14 -7 46 -13 72 -13 55 0 97 30 131 94 l22 41 3 -30 c4 -47 24 -77 59
-92 41 -17 111 -16 143 1 21 12 29 12 52 0 15 -8 47 -14 72 -14 54 0 94 30
124 92 l19 42 7 -41 c10 -57 41 -83 109 -90 41 -4 65 -1 91 11 42 20 50 20 66
1 8 -9 30 -15 60 -15 57 0 94 25 122 84 l19 41 -3 -78 c-3 -73 -6 -81 -31 -99
-54 -39 -75 -128 -41 -176 17 -24 70 -30 104 -12 24 13 48 80 54 154 6 65 11
71 67 80 37 6 39 8 39 42 l0 35 -47 -3 -47 -3 3 90 c1 50 6 131 11 180 7 87 7
91 -17 113 -14 12 -37 22 -54 22 -16 0 -29 -1 -30 -2 0 -2 -6 -53 -14 -114
-16 -132 -48 -221 -87 -244 -26 -14 -29 -13 -50 8 -20 20 -22 31 -21 115 1 50
6 114 11 142 12 60 3 82 -41 93 -78 21 -92 -18 -84 -230 l5 -148 -36 -6 c-30
-6 -39 -3 -55 17 -18 22 -19 35 -14 179 5 133 19 271 42 410 8 47 -11 70 -62
77 -58 8 -70 -14 -78 -147 -3 -58 -8 -119 -11 -137 -4 -30 -7 -31 -30 -23 -99
38 -212 -20 -259 -133 -19 -46 -19 -142 -1 -195 17 -46 14 -52 -26 -52 -24 0
-32 6 -45 38 -20 48 -14 217 17 452 l22 164 -22 18 c-29 23 -75 23 -99 -1z
m-46 -413 c-23 -157 -59 -241 -107 -246 -40 -5 -62 34 -56 101 9 104 71 187
141 187 28 0 29 -1 22 -42z m477 2 c-11 -132 -61 -250 -106 -250 -43 0 -59 32
-54 103 9 108 72 192 138 185 22 -3 25 -7 22 -38z m-1383 8 c38 -40 39 -119 4
-193 l-15 -32 -75 1 -75 1 7 48 c8 63 40 147 65 175 26 28 64 28 89 0z"/>
<path d="M3015 2058 c-2 -7 -6 -44 -8 -83 -1 -38 -7 -78 -11 -87 -7 -15 -3
-18 18 -18 19 0 26 5 26 19 0 30 16 33 28 7 10 -22 16 -24 106 -25 64 0 96 3
96 10 0 8 4 8 13 1 6 -6 47 -11 90 -11 l77 -1 -6 28 c-4 15 -13 38 -20 52 -7
14 -15 33 -18 43 -8 25 -30 16 -34 -14 -7 -59 -41 -104 -58 -78 -3 6 -3 47 1
91 6 74 5 80 -12 76 -13 -2 -19 -14 -21 -39 -3 -32 -6 -36 -29 -36 -33 0 -53
-27 -53 -71 0 -52 -24 -34 -28 21 -2 33 -7 47 -18 47 -10 0 -14 -12 -14 -39 0
-23 -6 -44 -15 -51 -24 -20 -39 2 -37 50 1 29 -2 40 -11 37 -6 -2 -12 -10 -12
-17 0 -7 -4 -15 -10 -17 -6 -2 -9 20 -7 57 3 50 1 60 -12 60 -9 0 -19 -6 -21
-12z m255 -112 c0 -22 -11 -46 -21 -46 -10 0 -12 43 -2 53 11 12 23 8 23 -7z
m126 -43 c-10 -10 -19 5 -10 18 6 11 8 11 12 0 2 -7 1 -15 -2 -18z"/>
<path d="M3132 2054 c2 -11 11 -20 22 -22 13 -3 17 1 14 14 -2 11 -11 20 -22
22 -13 3 -17 -1 -14 -14z"/>
<path d="M2320 1926 c0 -13 7 -27 16 -30 20 -8 528 -8 548 0 9 3 16 17 16 30
l0 24 -290 0 -290 0 0 -24z"/>
<path d="M3477 1937 c-15 -39 3 -42 286 -45 236 -2 276 -1 287 12 7 9 10 23 6
31 -5 13 -45 15 -290 15 -228 0 -285 -3 -289 -13z"/>
<path d="M5113 5872 c-46 -36 -52 -107 -12 -153 14 -16 33 -24 72 -27 50 -4
55 -2 80 28 60 71 17 170 -75 170 -25 0 -52 -8 -65 -18z"/>
<path d="M6301 5866 c-15 -15 -25 -42 -28 -70 -5 -40 -2 -48 25 -76 23 -22 40
-30 66 -30 l36 0 0 100 0 100 -38 0 c-28 0 -45 -7 -61 -24z"/>
<path d="M13 5283 c-9 -3 -13 -33 -13 -98 0 -101 2 -105 62 -105 42 0 98 57
98 99 0 43 -17 75 -50 94 -27 16 -71 21 -97 10z"/>
<path d="M1179 5261 c-24 -24 -29 -38 -29 -76 0 -40 5 -51 32 -77 28 -26 38
-29 75 -25 51 5 71 20 90 65 43 102 -90 191 -168 113z"/>
<path d="M5741 5274 c-82 -58 -42 -194 58 -194 57 0 92 35 99 98 4 47 2 54
-26 82 -35 35 -92 41 -131 14z"/>
<path d="M609 4712 c-42 -5 -80 -52 -81 -101 0 -48 20 -76 68 -97 38 -16 71
-9 107 24 22 21 27 34 27 73 0 71 -46 110 -121 101z"/>
<path d="M6295 4678 c-23 -27 -26 -39 -22 -75 5 -50 20 -71 64 -89 56 -24 63
-14 63 97 l0 99 -39 0 c-32 0 -44 -6 -66 -32z"/>
<path d="M18 4133 c-16 -4 -18 -17 -18 -98 0 -101 2 -105 62 -105 45 0 98 57
98 105 0 29 -8 45 -34 71 -33 33 -60 40 -108 27z"/>
<path d="M6299 3531 c-60 -60 -21 -170 61 -174 l35 -2 3 103 3 102 -36 0 c-27
0 -44 -8 -66 -29z"/>
<path d="M13 2953 c-9 -3 -13 -33 -13 -98 0 -101 2 -105 62 -105 45 0 98 57
98 105 0 69 -83 125 -147 98z"/>
<path d="M6299 2351 c-22 -23 -29 -39 -29 -69 0 -48 36 -97 77 -105 50 -9 53
-3 53 104 l0 99 -36 0 c-26 0 -43 -8 -65 -29z"/>
<path d="M13 1763 c-9 -3 -13 -33 -13 -98 0 -101 2 -105 62 -105 42 0 98 57
98 100 0 77 -78 132 -147 103z"/>
<path d="M5729 1741 c-24 -24 -29 -38 -29 -76 0 -85 74 -129 151 -90 34 18 49
50 49 102 0 50 -47 93 -102 93 -30 0 -46 -7 -69 -29z"/>
<path d="M571 1178 c-45 -29 -59 -84 -35 -135 40 -81 156 -79 190 4 41 98 -65
188 -155 131z"/>
<path d="M5150 1191 c-39 -7 -80 -57 -80 -98 0 -65 69 -121 131 -108 74 17
104 118 52 174 -32 34 -54 41 -103 32z"/>
<path d="M6334 1190 c-96 -39 -76 -198 26 -203 l35 -2 3 103 c2 60 -1 102 -7
102 -5 0 -15 2 -23 4 -7 3 -23 1 -34 -4z"/>
<path d="M28 580 c-26 -20 -28 -27 -28 -89 0 -63 2 -68 29 -84 68 -40 147 0
158 79 4 35 1 46 -23 73 -39 43 -97 52 -136 21z"/>
<path d="M1233 590 c-61 -25 -74 -120 -24 -171 65 -64 171 -20 171 71 0 52
-13 76 -50 95 -32 17 -64 18 -97 5z"/>
<path d="M2358 584 c-65 -35 -73 -121 -16 -169 65 -55 168 -11 168 70 0 46
-16 79 -50 98 -34 21 -66 21 -102 1z"/>
<path d="M3548 583 c-48 -30 -61 -89 -33 -144 38 -73 160 -61 186 18 31 96
-68 178 -153 126z"/>
<path d="M4565 569 c-30 -27 -35 -37 -35 -74 0 -61 31 -95 91 -102 38 -4 50
-1 76 21 75 63 28 186 -71 186 -14 0 -41 -14 -61 -31z"/>
<path d="M5783 590 c-13 -5 -32 -24 -43 -42 -64 -102 71 -211 159 -129 25 24
31 37 31 71 0 34 -6 48 -34 76 -35 35 -68 42 -113 24z"/>
<path d="M610 10 c-11 -7 4 -10 50 -10 46 0 61 3 50 10 -19 13 -81 13 -100 0z"/>
<path d="M1805 10 c-4 -6 17 -10 57 -10 44 0 59 3 48 10 -20 13 -97 13 -105 0z"/>
<path d="M2930 10 c-11 -7 4 -10 48 -10 40 0 61 4 57 10 -8 13 -85 13 -105 0z"/>
<path d="M4130 10 c-11 -7 4 -10 50 -10 46 0 61 3 50 10 -19 13 -81 13 -100 0z"/>
<path d="M5160 10 c-11 -7 4 -10 50 -10 46 0 61 3 50 10 -19 13 -81 13 -100 0z"/>
<path d="M6350 10 c-11 -7 -7 -10 18 -10 17 0 32 5 32 10 0 13 -30 13 -50 0z"/>
</g>
</svg>
